<svg xmlns="http://www.w3.org/2000/svg" xmlns:xlink="http://www.w3.org/1999/xlink" width="794" zoomAndPan="magnify" viewBox="0 0 595.5 842.249979" height="1123" preserveAspectRatio="xMidYMid meet" version="1.0"><defs><g/></defs><g fill="#ffffff" fill-opacity="1"><g transform="translate(82.948493, 422.340265)"><g><path d="M 116.71875 -73.734375 C 114.582031 -70.578125 112.144531 -67.421875 109.40625 -64.265625 C 106.675781 -61.109375 103.6875 -58.003906 100.4375 -54.953125 L 25.171875 -54.953125 C 26.015625 -57.078125 27.15625 -59.253906 28.59375 -61.484375 C 30.03125 -63.710938 31.675781 -65.726562 33.53125 -67.53125 C 35.382812 -69.34375 37.351562 -70.828125 39.4375 -71.984375 C 41.519531 -73.148438 43.628906 -73.734375 45.765625 -73.734375 Z M 72.0625 -24.203125 C 72.0625 -24.941406 71.921875 -25.707031 71.640625 -26.5 C 71.359375 -27.289062 70.847656 -27.6875 70.109375 -27.6875 L 42.296875 -27.6875 C 39.597656 -27.6875 37.179688 -28.285156 35.046875 -29.484375 C 32.921875 -30.691406 31.066406 -32.242188 29.484375 -34.140625 C 27.910156 -36.046875 26.660156 -38.179688 25.734375 -40.546875 C 24.804688 -42.910156 24.25 -45.253906 24.0625 -47.578125 L 51.75 -47.578125 C 51.75 -47.390625 51.84375 -47.296875 52.03125 -47.296875 C 52.394531 -46.921875 52.925781 -46.570312 53.625 -46.25 C 54.320312 -45.925781 54.71875 -45.765625 54.8125 -45.765625 L 81.234375 -45.765625 C 84.203125 -45.765625 86.753906 -45.046875 88.890625 -43.609375 C 91.023438 -42.171875 92.765625 -40.363281 94.109375 -38.1875 C 95.453125 -36.007812 96.445312 -33.664062 97.09375 -31.15625 C 97.75 -28.65625 98.078125 -26.335938 98.078125 -24.203125 L 98.078125 -23.375 C 98.078125 -20.957031 97.519531 -18.378906 96.40625 -15.640625 C 95.289062 -12.910156 93.828125 -10.382812 92.015625 -8.0625 C 90.210938 -5.75 88.128906 -3.828125 85.765625 -2.296875 C 83.398438 -0.765625 80.960938 0 78.453125 0 L 7.515625 0 C 7.972656 -0.925781 8.921875 -2.410156 10.359375 -4.453125 C 11.796875 -6.492188 13.328125 -8.554688 14.953125 -10.640625 C 16.578125 -12.722656 18.082031 -14.578125 19.46875 -16.203125 C 20.863281 -17.828125 21.703125 -18.640625 21.984375 -18.640625 L 69.28125 -18.640625 C 70.664062 -18.640625 71.472656 -19.054688 71.703125 -19.890625 C 71.941406 -20.722656 72.0625 -21.601562 72.0625 -22.53125 Z M 7.796875 4.3125 L 81.234375 4.3125 C 83.929688 4.3125 86.550781 3.5 89.09375 1.875 C 91.644531 0.25 93.894531 -1.785156 95.84375 -4.234375 C 97.789062 -6.691406 99.367188 -9.378906 100.578125 -12.296875 C 101.785156 -15.222656 102.390625 -17.988281 102.390625 -20.59375 L 102.390625 -21.421875 C 102.390625 -24.203125 101.832031 -27.304688 100.71875 -30.734375 C 99.601562 -34.171875 97.835938 -37.09375 95.421875 -39.5 C 93.847656 -41.914062 91.898438 -43.890625 89.578125 -45.421875 C 87.265625 -46.953125 84.484375 -47.71875 81.234375 -47.71875 L 55.09375 -47.71875 C 54.8125 -47.8125 54.484375 -47.945312 54.109375 -48.125 L 53.421875 -48.828125 C 53.609375 -49.203125 53.703125 -49.429688 53.703125 -49.515625 L 21.984375 -49.515625 C 22.253906 -45.535156 23.363281 -41.570312 25.3125 -37.625 C 27.257812 -33.6875 29.90625 -30.601562 33.25 -28.375 C 34.820312 -26.800781 36.582031 -25.570312 38.53125 -24.6875 C 40.476562 -23.8125 42.660156 -23.375 45.078125 -23.375 L 70.109375 -23.375 L 70.109375 -22.53125 C 70.109375 -22.070312 70.082031 -21.632812 70.03125 -21.21875 C 69.988281 -20.800781 69.738281 -20.59375 69.28125 -20.59375 L 21.984375 -20.59375 C 21.515625 -20.59375 20.445312 -19.617188 18.78125 -17.671875 C 17.113281 -15.722656 15.304688 -13.472656 13.359375 -10.921875 C 11.410156 -8.367188 9.550781 -5.863281 7.78125 -3.40625 C 6.019531 -0.945312 4.863281 0.835938 4.3125 1.953125 L 5.421875 1.953125 Z M 116.984375 -75.671875 L 45.765625 -75.671875 C 43.359375 -75.671875 40.972656 -74.972656 38.609375 -73.578125 C 36.242188 -72.191406 34.015625 -70.410156 31.921875 -68.234375 C 29.835938 -66.054688 27.9375 -63.617188 26.21875 -60.921875 C 24.507812 -58.234375 23.1875 -55.59375 22.25 -53 L 23.375 -53 L 25.734375 -50.640625 L 103.921875 -50.640625 C 107.253906 -53.785156 110.3125 -57.003906 113.09375 -60.296875 C 115.875 -63.597656 118.425781 -66.867188 120.75 -70.109375 L 119.5 -72.46875 L 117.6875 -74.28125 Z M 116.984375 -75.671875 "/></g></g></g><g fill="#ffffff" fill-opacity="1"><g transform="translate(199.094194, 380.6936)"><g><path d="M 13.6875 -30.734375 L 24.8125 -30.734375 L 21.96875 -22.90625 L 10.84375 -22.90625 Z M 38.96875 -30.734375 L 51.375 -30.734375 L 41.109375 -22.90625 L 28.0625 -22.90625 Z M 9.6875 -19.828125 L 20.8125 -19.828125 L 19.765625 -16.9375 L 23.78125 -19.828125 L 37.109375 -19.828125 L 31.3125 -15.359375 L 42.4375 0 L 30.03125 0 L 18.671875 -13.796875 L 13.625 0 L 2.5 0 Z M 1.390625 0.8125 L 1.796875 0.8125 L 2.78125 1.796875 L 15.1875 1.796875 L 19.890625 -11.078125 L 29.6875 0.8125 L 29.921875 0.8125 L 30.90625 1.796875 L 44.828125 1.796875 L 33.34375 -14.03125 L 40.1875 -19.3125 L 39.140625 -20.359375 L 39.484375 -20.640625 L 23.546875 -20.640625 L 22.328125 -19.765625 L 21.796875 -20.296875 L 21.921875 -20.640625 L 9.15625 -20.640625 Z M 25.578125 -22.09375 L 26.265625 -22.09375 L 27.25 -21.109375 L 42.5 -21.109375 L 54.453125 -30.203125 L 53.40625 -31.25 L 53.8125 -31.546875 L 38.734375 -31.546875 Z M 9.734375 -22.09375 L 10.140625 -22.09375 L 11.140625 -21.109375 L 23.546875 -21.109375 L 26.84375 -30.203125 L 25.796875 -31.25 L 25.921875 -31.546875 L 13.15625 -31.546875 Z M 9.734375 -22.09375 "/></g></g></g><g fill="#ffffff" fill-opacity="1"><g transform="translate(245.305803, 380.6936)"><g><path d="M 25.515625 -30.734375 L 28.40625 -23.484375 L 36.640625 -30.734375 L 49.0625 -30.734375 L 40.1875 -22.90625 L 16.296875 -22.90625 L 13.109375 -30.734375 Z M 19.65625 -14.609375 L 17.515625 -19.828125 L 36.703125 -19.828125 L 30.796875 -14.609375 L 25.453125 0 L 14.328125 0 Z M 13.21875 0.8125 L 13.625 0.8125 L 14.609375 1.796875 L 27.015625 1.796875 L 32.46875 -13.109375 L 39.546875 -19.3125 L 38.5 -20.359375 L 38.84375 -20.640625 L 16.296875 -20.640625 L 18.734375 -14.546875 Z M 11.890625 -31.546875 L 15.765625 -22.09375 L 16.0625 -22.09375 L 17.046875 -21.109375 L 41.578125 -21.109375 L 51.890625 -30.203125 L 50.859375 -31.25 L 51.203125 -31.546875 L 36.359375 -31.546875 L 29.109375 -25.046875 L 27.078125 -30.203125 L 26.203125 -31.015625 L 26.03125 -31.546875 Z M 11.890625 -31.546875 "/></g></g></g><g fill="#ffffff" fill-opacity="1"><g transform="translate(289.082199, 380.6936)"><g><path d="M 37.34375 -30.734375 L 48.359375 -30.734375 L 45.515625 -22.90625 L 34.4375 -22.90625 Z M 13.6875 -30.734375 L 27.71875 -30.734375 L 29.21875 -22.90625 L 10.84375 -22.90625 Z M 9.6875 -19.828125 L 29.796875 -19.828125 L 31.015625 -13.453125 L 33.34375 -19.828125 L 44.359375 -19.828125 L 37.171875 0 L 23.140625 0 L 19.890625 -17.28125 L 13.625 0 L 2.5 0 Z M 1.390625 0.8125 L 1.796875 0.8125 L 2.78125 1.796875 L 15.1875 1.796875 L 20.0625 -11.59375 L 22.4375 0.8125 L 22.78125 0.8125 L 23.78125 1.796875 L 38.734375 1.796875 L 46.390625 -19.3125 L 45.34375 -20.359375 L 45.453125 -20.640625 L 32.8125 -20.640625 L 31.78125 -17.75 L 31.484375 -19.3125 L 30.5625 -20.171875 L 30.5 -20.640625 L 9.15625 -20.640625 Z M 9.734375 -22.09375 L 10.140625 -22.09375 L 11.140625 -21.109375 L 31.203125 -21.109375 L 29.390625 -30.203125 L 28.46875 -31.078125 L 28.40625 -31.546875 L 13.15625 -31.546875 Z M 33.21875 -22.09375 L 33.6875 -22.09375 L 34.671875 -21.109375 L 47.078125 -21.109375 L 50.390625 -30.203125 L 49.34375 -31.25 L 49.453125 -31.546875 L 36.8125 -31.546875 Z M 33.21875 -22.09375 "/></g></g></g><g fill="#ffffff" fill-opacity="1"><g transform="translate(332.742621, 380.6936)"><g><path d="M 46.734375 -30.734375 C 46.460938 -30.234375 46.015625 -29.554688 45.390625 -28.703125 C 44.773438 -27.847656 44.117188 -26.992188 43.421875 -26.140625 C 42.734375 -25.296875 42.0625 -24.554688 41.40625 -23.921875 C 40.75 -23.285156 40.242188 -22.945312 39.890625 -22.90625 L 10.84375 -22.90625 L 13.6875 -30.734375 Z M 24.125 -19.140625 L 37.515625 -19.140625 L 29.21875 -11.3125 L 17.6875 -11.3125 L 16.40625 -7.828125 L 38.625 -7.828125 C 38.582031 -7.753906 38.484375 -7.585938 38.328125 -7.328125 C 38.171875 -7.078125 38.015625 -6.816406 37.859375 -6.546875 C 37.703125 -6.273438 37.546875 -6.023438 37.390625 -5.796875 C 37.242188 -5.566406 37.148438 -5.429688 37.109375 -5.390625 C 36.765625 -4.929688 36.289062 -4.390625 35.6875 -3.765625 C 35.09375 -3.148438 34.503906 -2.5625 33.921875 -2 C 33.335938 -1.4375 32.820312 -0.960938 32.375 -0.578125 C 31.9375 -0.191406 31.695312 0 31.65625 0 L 2.5 0 L 9.6875 -19.828125 L 20.8125 -19.828125 L 18.609375 -13.796875 Z M 21.921875 -20.640625 L 9.15625 -20.640625 L 1.390625 0.8125 L 1.796875 0.8125 L 2.78125 1.796875 L 32.8125 1.796875 C 32.851562 1.796875 33.125 1.59375 33.625 1.1875 C 34.132812 0.78125 34.707031 0.289062 35.34375 -0.28125 C 35.976562 -0.863281 36.613281 -1.472656 37.25 -2.109375 C 37.894531 -2.753906 38.390625 -3.304688 38.734375 -3.765625 L 38.796875 -3.828125 C 38.867188 -3.898438 39 -4.097656 39.1875 -4.421875 C 39.382812 -4.753906 39.585938 -5.113281 39.796875 -5.5 C 40.015625 -5.894531 40.21875 -6.265625 40.40625 -6.609375 C 40.601562 -6.953125 40.742188 -7.1875 40.828125 -7.3125 L 39.78125 -8.296875 C 39.8125 -8.367188 39.835938 -8.429688 39.859375 -8.484375 C 39.878906 -8.546875 39.910156 -8.597656 39.953125 -8.640625 L 18.953125 -8.640625 L 19.25 -9.515625 L 30.671875 -9.515625 L 40.296875 -18.609375 L 39.25 -19.65625 L 39.546875 -19.953125 L 23.78125 -19.953125 L 22.671875 -18.90625 L 22.84375 -19.3125 L 21.796875 -20.359375 Z M 13.15625 -31.546875 L 9.734375 -22.09375 L 10.140625 -22.09375 L 11.140625 -21.109375 L 41.171875 -21.109375 C 41.554688 -21.179688 42.113281 -21.582031 42.84375 -22.3125 C 43.582031 -23.050781 44.359375 -23.90625 45.171875 -24.875 C 45.984375 -25.84375 46.734375 -26.828125 47.421875 -27.828125 C 48.117188 -28.835938 48.625 -29.628906 48.9375 -30.203125 L 47.890625 -31.25 C 47.929688 -31.289062 47.988281 -31.390625 48.0625 -31.546875 Z M 13.15625 -31.546875 "/></g></g></g><g fill="#ffffff" fill-opacity="1"><g transform="translate(374.721579, 380.6936)"><g><path d="M 20.359375 -19.828125 L 31.484375 -19.828125 L 24.296875 0 L 13.15625 0 Z M 10.546875 -22.96875 C 10.585938 -23.113281 10.867188 -23.535156 11.390625 -24.234375 C 11.910156 -24.929688 12.53125 -25.703125 13.25 -26.546875 C 13.96875 -27.398438 14.703125 -28.222656 15.453125 -29.015625 C 16.203125 -29.804688 16.847656 -30.378906 17.390625 -30.734375 L 46.453125 -30.734375 C 46.179688 -30.234375 45.734375 -29.554688 45.109375 -28.703125 C 44.492188 -27.847656 43.835938 -26.992188 43.140625 -26.140625 C 42.441406 -25.296875 41.765625 -24.554688 41.109375 -23.921875 C 40.453125 -23.285156 39.953125 -22.945312 39.609375 -22.90625 L 10.546875 -22.90625 Z M 9.734375 -22.09375 L 10.09375 -22.09375 L 11.078125 -21.109375 L 40.875 -21.109375 C 41.257812 -21.179688 41.816406 -21.582031 42.546875 -22.3125 C 43.285156 -23.050781 44.0625 -23.90625 44.875 -24.875 C 45.6875 -25.84375 46.441406 -26.828125 47.140625 -27.828125 C 47.835938 -28.835938 48.34375 -29.628906 48.65625 -30.203125 L 47.609375 -31.25 C 47.640625 -31.289062 47.695312 -31.390625 47.78125 -31.546875 L 17.109375 -31.546875 C 16.523438 -31.191406 15.828125 -30.578125 15.015625 -29.703125 C 14.203125 -28.835938 13.410156 -27.953125 12.640625 -27.046875 C 11.867188 -26.140625 11.203125 -25.304688 10.640625 -24.546875 C 10.078125 -23.796875 9.773438 -23.34375 9.734375 -23.1875 Z M 12.0625 0.8125 L 12.46875 0.8125 L 13.453125 1.796875 L 25.859375 1.796875 L 33.515625 -19.3125 L 32.46875 -20.359375 L 32.59375 -20.640625 L 19.828125 -20.640625 Z M 12.0625 0.8125 "/></g></g></g><g fill="#ffffff" fill-opacity="1"><g transform="translate(307.639456, 461.689479)"><g/></g></g><g fill="#ffffff" fill-opacity="1"><g transform="translate(196.978267, 411.537851)"><g><path d="M 0.359375 0 L 3.03125 -13.828125 L 5.9375 -13.828125 L 3.234375 0 Z M 0.359375 0 "/></g></g></g><g fill="#ffffff" fill-opacity="1"><g transform="translate(208.82049, 411.537851)"><g><path d="M 8.6875 0 L 5 -11.109375 C 4.851562 -10.046875 4.734375 -9.265625 4.640625 -8.765625 L 2.921875 0 L 0.359375 0 L 3.046875 -13.828125 L 6.484375 -13.828125 L 10.1875 -2.625 L 10.296875 -3.4375 C 10.367188 -3.976562 10.460938 -4.546875 10.578125 -5.140625 L 12.296875 -13.828125 L 14.859375 -13.828125 L 12.171875 0 Z M 8.6875 0 "/></g></g></g><g fill="#ffffff" fill-opacity="1"><g transform="translate(229.597661, 411.537851)"><g><path d="M 8.78125 -11.59375 L 6.53125 0 L 3.640625 0 L 5.890625 -11.59375 L 1.421875 -11.59375 L 1.859375 -13.828125 L 13.703125 -13.828125 L 13.265625 -11.59375 Z M 8.78125 -11.59375 "/></g></g></g><g fill="#ffffff" fill-opacity="1"><g transform="translate(248.136185, 411.537851)"><g><path d="M 0.359375 0 L 3.03125 -13.828125 L 13.90625 -13.828125 L 13.484375 -11.59375 L 5.5 -11.59375 L 4.828125 -8.125 L 12.203125 -8.125 L 11.765625 -5.875 L 4.390625 -5.875 L 3.6875 -2.234375 L 12.0625 -2.234375 L 11.625 0 Z M 0.359375 0 "/></g></g></g><g fill="#ffffff" fill-opacity="1"><g transform="translate(267.803852, 411.537851)"><g><path d="M 0.359375 0 L 3.03125 -13.828125 L 5.9375 -13.828125 L 3.6875 -2.234375 L 11.109375 -2.234375 L 10.65625 0 Z M 0.359375 0 "/></g></g></g><g fill="#ffffff" fill-opacity="1"><g transform="translate(286.342376, 411.537851)"><g><path d="M 0.359375 0 L 3.03125 -13.828125 L 5.9375 -13.828125 L 3.6875 -2.234375 L 11.109375 -2.234375 L 10.65625 0 Z M 0.359375 0 "/></g></g></g><g fill="#ffffff" fill-opacity="1"><g transform="translate(304.8809, 411.537851)"><g><path d="M 0.359375 0 L 3.03125 -13.828125 L 5.9375 -13.828125 L 3.234375 0 Z M 0.359375 0 "/></g></g></g><g fill="#ffffff" fill-opacity="1"><g transform="translate(316.723128, 411.537851)"><g><path d="M 7.265625 0.1875 C 5.304688 0.1875 3.769531 -0.328125 2.65625 -1.359375 C 1.539062 -2.398438 0.984375 -3.851562 0.984375 -5.71875 C 0.984375 -7.351562 1.320312 -8.804688 2 -10.078125 C 2.6875 -11.347656 3.65625 -12.328125 4.90625 -13.015625 C 6.164062 -13.703125 7.613281 -14.046875 9.25 -14.046875 C 10.738281 -14.046875 11.984375 -13.707031 12.984375 -13.03125 C 13.992188 -12.351562 14.671875 -11.410156 15.015625 -10.203125 L 12.25 -9.4375 C 12.0625 -10.175781 11.695312 -10.75 11.15625 -11.15625 C 10.613281 -11.5625 9.925781 -11.765625 9.09375 -11.765625 C 8.050781 -11.765625 7.132812 -11.519531 6.34375 -11.03125 C 5.5625 -10.539062 4.960938 -9.84375 4.546875 -8.9375 C 4.128906 -8.03125 3.921875 -6.988281 3.921875 -5.8125 C 3.921875 -4.644531 4.234375 -3.726562 4.859375 -3.0625 C 5.484375 -2.40625 6.363281 -2.078125 7.5 -2.078125 C 8.207031 -2.078125 8.894531 -2.160156 9.5625 -2.328125 C 10.226562 -2.492188 10.796875 -2.722656 11.265625 -3.015625 L 11.71875 -5.25 L 8.359375 -5.25 L 8.75 -7.296875 L 14.78125 -7.296875 L 13.75 -1.71875 C 12.726562 -1.019531 11.707031 -0.523438 10.6875 -0.234375 C 9.664062 0.046875 8.523438 0.1875 7.265625 0.1875 Z M 7.265625 0.1875 "/></g></g></g><g fill="#ffffff" fill-opacity="1"><g transform="translate(338.619628, 411.537851)"><g><path d="M 0.359375 0 L 3.03125 -13.828125 L 13.90625 -13.828125 L 13.484375 -11.59375 L 5.5 -11.59375 L 4.828125 -8.125 L 12.203125 -8.125 L 11.765625 -5.875 L 4.390625 -5.875 L 3.6875 -2.234375 L 12.0625 -2.234375 L 11.625 0 Z M 0.359375 0 "/></g></g></g><g fill="#ffffff" fill-opacity="1"><g transform="translate(358.287288, 411.537851)"><g><path d="M 8.6875 0 L 5 -11.109375 C 4.851562 -10.046875 4.734375 -9.265625 4.640625 -8.765625 L 2.921875 0 L 0.359375 0 L 3.046875 -13.828125 L 6.484375 -13.828125 L 10.1875 -2.625 L 10.296875 -3.4375 C 10.367188 -3.976562 10.460938 -4.546875 10.578125 -5.140625 L 12.296875 -13.828125 L 14.859375 -13.828125 L 12.171875 0 Z M 8.6875 0 "/></g></g></g><g fill="#ffffff" fill-opacity="1"><g transform="translate(379.064464, 411.537851)"><g><path d="M 3.9375 -5.625 C 3.9375 -4.488281 4.210938 -3.613281 4.765625 -3 C 5.328125 -2.382812 6.128906 -2.078125 7.171875 -2.078125 C 8.921875 -2.078125 10.289062 -2.921875 11.28125 -4.609375 L 13.515625 -3.453125 C 12.140625 -1.015625 9.960938 0.203125 6.984375 0.203125 C 5.734375 0.203125 4.65625 -0.03125 3.75 -0.5 C 2.84375 -0.976562 2.15625 -1.65625 1.6875 -2.53125 C 1.21875 -3.40625 0.984375 -4.425781 0.984375 -5.59375 C 0.984375 -7.238281 1.328125 -8.707031 2.015625 -10 C 2.703125 -11.300781 3.660156 -12.300781 4.890625 -13 C 6.128906 -13.695312 7.535156 -14.046875 9.109375 -14.046875 C 10.609375 -14.046875 11.835938 -13.722656 12.796875 -13.078125 C 13.765625 -12.429688 14.421875 -11.46875 14.765625 -10.1875 L 12.0625 -9.5 C 11.875 -10.195312 11.507812 -10.75 10.96875 -11.15625 C 10.4375 -11.5625 9.785156 -11.765625 9.015625 -11.765625 C 7.429688 -11.765625 6.1875 -11.210938 5.28125 -10.109375 C 4.382812 -9.015625 3.9375 -7.519531 3.9375 -5.625 Z M 3.9375 -5.625 "/></g></g></g><g fill="#ffffff" fill-opacity="1"><g transform="translate(399.84164, 411.537851)"><g><path d="M 0.359375 0 L 3.03125 -13.828125 L 13.90625 -13.828125 L 13.484375 -11.59375 L 5.5 -11.59375 L 4.828125 -8.125 L 12.203125 -8.125 L 11.765625 -5.875 L 4.390625 -5.875 L 3.6875 -2.234375 L 12.0625 -2.234375 L 11.625 0 Z M 0.359375 0 "/></g></g></g></svg>