<?xml version="1.0" encoding="UTF-8" standalone="no"?>
<svg
   width="650"
   height="160"
   viewBox="0 0 650 160"
   version="1.1"
   id="svg27"
   sodipodi:docname="skynet_logo_black_white.svg"
   inkscape:version="1.1.2 (b8e25be833, 2022-02-05)"
   xmlns:inkscape="http://www.inkscape.org/namespaces/inkscape"
   xmlns:sodipodi="http://sodipodi.sourceforge.net/DTD/sodipodi-0.dtd"
   xmlns="http://www.w3.org/2000/svg"
   xmlns:svg="http://www.w3.org/2000/svg">
  <sodipodi:namedview
     id="namedview29"
     pagecolor="#ffffff"
     bordercolor="#666666"
     borderopacity="1.0"
     inkscape:pageshadow="2"
     inkscape:pageopacity="0.0"
     inkscape:pagecheckerboard="0"
     showgrid="false"
     inkscape:zoom="2.6261538"
     inkscape:cx="264.45518"
     inkscape:cy="79.964851"
     inkscape:window-width="1920"
     inkscape:window-height="1017"
     inkscape:window-x="-8"
     inkscape:window-y="-8"
     inkscape:window-maximized="1"
     inkscape:current-layer="svg27" />
  <defs
     id="defs22">
    <style
       id="style20">
      .cls-1 {
        fill: #f0f2f3;
        fill-rule: evenodd;
      }
    </style>
  </defs>
  <path
     id="Spsum_dolor_sit_amet_consectetur_adipiscing_elit_sed_do_eiusm"
     data-name="Spsum dolor sit amet, consectetur adipiscing elit, sed do eiusm"
     class="cls-1"
     d="M81.189,6.731a24.757,24.757,0,0,0-12.135,3.334A53.46,53.46,0,0,0,57.719,18.6a66.413,66.413,0,0,0-9.468,11.6,70.6,70.6,0,0,0-6.534,12.535H186a247.93,247.93,0,0,0,17.2-17.869,191.6,191.6,0,0,0,14-18.136H81.189ZM131.6,104.877a18.983,18.983,0,0,1-.666,5.067q-0.669,2.4-4.668,2.4H35.583q-0.8,0-4.8,4.667T22.115,127.68q-4.669,6-8.8,11.868a77.7,77.7,0,0,0-5.467,8.534H143.863a25.456,25.456,0,0,0,14-4.4,48.761,48.761,0,0,0,12-11.068,60.653,60.653,0,0,0,8.4-14.535,39.38,39.38,0,0,0,3.2-14.8v-1.6A53.512,53.512,0,0,0,179.6,88.342a48.965,48.965,0,0,0-5.734-13.468,33.918,33.918,0,0,0-10-10.4A25.643,25.643,0,0,0,149.2,60.338H98.525a12.19,12.19,0,0,1-2.267-.933,10.664,10.664,0,0,1-3.067-2,0.469,0.469,0,0,1-.533-0.533H39.584a46.985,46.985,0,0,0,3.2,13.468,44.384,44.384,0,0,0,7.2,12.268,38,38,0,0,0,10.668,8.934,27.662,27.662,0,0,0,13.868,3.467h53.34a2.96,2.96,0,0,1,2.934,2.267,13.186,13.186,0,0,1,.8,4.4v3.2ZM3.846,151.816H1.712A89.449,89.449,0,0,1,8.38,141.548q5.063-7.064,10.668-14.4t10.4-12.934q4.8-5.6,6.134-5.6h90.678a1.275,1.275,0,0,0,1.467-1.2,23.155,23.155,0,0,0,.133-2.534v-1.6H79.856a30.021,30.021,0,0,1-12.535-2.534,34.089,34.089,0,0,1-10.135-7.067,44.4,44.4,0,0,1-15.2-17.735,60.745,60.745,0,0,1-6.4-22.8H96.391a4.677,4.677,0,0,1-.533,1.334L97.191,55.8a13.719,13.719,0,0,0,1.867.8H149.2a28.4,28.4,0,0,1,16,4.4A38.989,38.989,0,0,1,176.4,72.34a41.481,41.481,0,0,1,10.134,16.8,58.505,58.505,0,0,1,3.2,17.869v1.6a41.725,41.725,0,0,1-3.467,15.868,64.222,64.222,0,0,1-9.068,15.469,52.227,52.227,0,0,1-12.935,11.735A27.764,27.764,0,0,1,149.2,156.35H8.38ZM219.073,5.665l3.467,3.467,2.4,4.534q-6.669,9.339-14.668,18.8A227.108,227.108,0,0,1,192.67,51H42.784L38.25,46.47H36.117a75.673,75.673,0,0,1,7.6-15.2,90.754,90.754,0,0,1,10.935-14A59.681,59.681,0,0,1,67.454,7,26.832,26.832,0,0,1,81.189,3h136.55Z"
     style="fill:#f0f2f3;fill-opacity:1" />
  <path
     id="INTELLIGENCE"
     class="cls-1"
     d="M219.7,108.812h-5.7l5.214-22.526h5.7l1.43-6.188H205.909l-1.43,6.188h5.7l-5.213,22.527h-5.7L197.836,115h20.439ZM265.459,80.1h-8.323L252.5,100.3,243.72,80.1H233.642L225.589,115h8.3l5.576-24.167L249.71,115h7.7Zm36.195,0h-30.8l-1.547,6.751h10.881L273.689,115h9.046l6.5-28.152h10.874Zm5.357,0L298.958,115H324.25l1.5-6.634H309.485l2.038-8.79h15.1l1.545-6.634H313.06l1.44-6.212h16.29l1.524-6.634h-25.3Zm51.509,28.152H342.353l6.5-28.152H339.8L331.751,115h25.2Zm30.59,0H372.943L379.437,80.1h-9.043L362.341,115h25.2Zm24.142,0.563h-5.7l5.213-22.526h5.7L419.9,80.1H399.457l-1.43,6.188h5.7l-5.214,22.527h-5.7L391.383,115h20.439Zm30.392,6.094a66.164,66.164,0,0,0,6.645-1.9l3.985-17.229h-16.1l-1.524,6.587h6.961l-1.577,6.821c-0.345.031-.72,0.055-1.127,0.07s-0.782.024-1.127,0.024q-5.187,0-7.487-1.979t-2.3-6.171a17.876,17.876,0,0,1,.937-5.783,14.969,14.969,0,0,1,2.6-4.778,13.071,13.071,0,0,1,4.243-3.383,12.164,12.164,0,0,1,5.555-1.253,14.273,14.273,0,0,1,5.532,1.043,18.13,18.13,0,0,1,5.321,3.715h1.008l1.993-8.181a25.366,25.366,0,0,0-6.692-2.45,35.716,35.716,0,0,0-7-.645q-9.987,0-16.479,6.364t-6.493,16.444q0,6.47,4.207,9.986t11.639,3.516A32.025,32.025,0,0,0,443.644,114.906ZM466.124,80.1L458.072,115h25.292l1.5-6.634H468.6l2.038-8.79h15.1l1.545-6.634h-15.1l1.44-6.212H489.9l1.523-6.634h-25.3Zm64.611,0h-8.324L517.774,100.3,509,80.1H498.918L490.865,115h8.3l5.575-24.167L514.985,115h7.7Zm21.016,35.325a29.764,29.764,0,0,0,3.153-.75,24.158,24.158,0,0,0,2.7-.973q1.405-.6,2.461-1.02l2.039-8.344h-0.938a25.981,25.981,0,0,1-5.367,3.316,14.379,14.379,0,0,1-6.071,1.3,7.432,7.432,0,0,1-5.486-1.875q-1.875-1.875-1.875-6.047a16.476,16.476,0,0,1,3.387-10.689,10.6,10.6,0,0,1,8.615-4.2,11.252,11.252,0,0,1,5.18,1.125,16.4,16.4,0,0,1,4.43,3.516h1.032l2.062-8.462a20.8,20.8,0,0,0-5.578-2.168,28.853,28.853,0,0,0-6.7-.738,22.343,22.343,0,0,0-8.544,1.664,20.6,20.6,0,0,0-6.974,4.618,22.174,22.174,0,0,0-4.676,7.22,24.462,24.462,0,0,0-1.7,9.306q0,6.494,3.845,9.974t10.923,3.481A24.96,24.96,0,0,0,551.751,115.422ZM574.3,80.1L566.249,115h25.292l1.5-6.634H576.776l2.038-8.79h15.1l1.545-6.634H580.351l1.44-6.212h16.29l1.524-6.634H574.3Z" />
  <path
     id="kynet"
     class="cls-1"
     d="M228.443,21.594h23.043l5.88-16.2H234.324Zm35.644,0h27l21.242-16.2H286.65ZM211.161,69H234.2l10.441-28.564L268.168,69h25.683L270.808,37.2l12-9.241h-27.6l-8.281,6,2.16-6H226.043Zm13.8-42.725h26.4l-0.24.72,1.08,1.08,2.52-1.8h33l-0.72.6,2.16,2.16L275.009,39.956l23.763,32.764h-28.8l-2.04-2.04h-0.48l-20.283-24.6-9.721,26.643H211.761l-2.041-2.04h-0.84ZM286.17,3.712h31.2l-0.84.6,2.16,2.16L293.971,25.315H262.407l-2.04-2.04h-1.44Zm-52.927,0h26.4l-0.24.6,2.16,2.16-6.841,18.842H229.043L227,23.274h-0.84Zm87.251,1.68,6.6,16.2h49.446L394.9,5.392H369.22l-17.042,15-6-15H320.494ZM323.014,69h23.043L357.1,38.756l12.242-10.8H329.615l4.441,10.8Zm9.121-30.124-5.04-12.6h46.686l-0.721.6,2.161,2.16L360.579,41.877,349.3,72.721H323.614l-2.04-2.04h-0.84ZM347.257,3.712l0.36,1.08,1.8,1.68,4.2,10.681,15-13.442h30.724l-0.72.6,2.16,2.16L379.421,25.315H328.655l-2.04-2.04h-0.6L317.974,3.712h29.283Zm99.731,17.882h22.923l5.881-16.2h-22.8Zm-48.846,0h38.045l-3.12-16.2H404.023ZM380.86,69H403.9l12.962-35.764L423.586,69h29.043l14.882-41.045h-22.8l-4.8,13.2-2.521-13.2H395.742Zm13.8-42.725h44.165l0.12,0.96,1.921,1.8,0.6,3.24,2.16-6h26.163l-0.24.6,2.161,2.16L455.87,72.721H424.906l-2.041-2.04h-0.72L417.225,45,407.143,72.721H381.46l-2.04-2.04h-0.84Zm8.281-22.563h31.564l0.12,0.96,1.92,1.8,3.721,18.842H398.742l-2.04-2.04h-0.84Zm48.966,0h26.163l-0.24.6,2.161,2.16-6.841,18.842H447.469l-2.041-2.04h-0.96Zm34.2,1.68-5.881,16.2h60.128q1.08-.118,3.12-2.1a54.718,54.718,0,0,0,4.2-4.621q2.16-2.638,4.08-5.281a40.123,40.123,0,0,0,2.761-4.2H486.112Zm10.2,35.044,4.561-12.481H477.831L462.949,69h60.368a9.892,9.892,0,0,0,1.5-1.2q1.379-1.2,3.18-2.94t3.661-3.66a36.461,36.461,0,0,0,2.94-3.36,8.481,8.481,0,0,0,.6-0.84q0.479-.72.96-1.56t0.961-1.62c0.318-.519.519-0.859,0.6-1.02H491.753l2.64-7.2h23.883l17.162-16.2H507.715Zm6.6-13.562,2.161,2.16-0.36.84,2.28-2.16h32.644l-0.6.6,2.16,2.16L521.277,49.318H497.634l-0.6,1.8h43.445a0.735,0.735,0,0,0-.18.3,3.565,3.565,0,0,1-.18.42l2.16,2.04q-0.241.36-.84,1.44t-1.26,2.28q-0.661,1.2-1.26,2.22a8.114,8.114,0,0,1-.84,1.26l-0.12.12A33.568,33.568,0,0,1,534.9,64.62q-1.98,1.98-3.96,3.78T527.4,71.46a12.256,12.256,0,0,1-1.68,1.26H463.549l-2.04-2.04h-0.84l16.082-44.405h26.4ZM557.281,3.712a2.812,2.812,0,0,1-.36.6l2.16,2.16a54.294,54.294,0,0,1-3.12,4.921q-2.16,3.122-4.681,6.121t-4.8,5.281Q544.2,25.075,543,25.315H480.832l-2.041-2.04h-0.84l7.081-19.562h72.249ZM563.642,69h23.043l14.881-41.045H578.524Zm-5.4-47.406h60.128q1.08-.118,3.12-2.1a54.716,54.716,0,0,0,4.2-4.621q2.162-2.638,4.081-5.281a39.919,39.919,0,0,0,2.76-4.2H572.4a23.613,23.613,0,0,0-4.021,3.54q-2.34,2.461-4.56,5.1t-3.841,4.8a13.392,13.392,0,0,0-1.74,2.64v0.12Zm-1.68-.6a15.09,15.09,0,0,1,1.86-2.82q1.738-2.34,4.141-5.161t4.92-5.521a21.777,21.777,0,0,1,4.321-3.78h63.488a2.9,2.9,0,0,1-.36.6l2.16,2.16a54.294,54.294,0,0,1-3.12,4.921q-2.162,3.122-4.681,6.121t-4.8,5.281q-2.28,2.281-3.48,2.52H559.321l-2.04-2.04h-0.72v-2.28Zm20.882,5.281h26.4l-0.24.6,2.16,2.16L589.925,72.721H564.242l-2.04-2.04h-0.841Z"
     style="fill:#f0f2f3;fill-opacity:1" />
  <path
     style="fill:#01070f;stroke:none;stroke-width:0.380785;fill-opacity:1"
     d="m 9.816165,144.98983 c 4.681587,-7.54279 17.773625,-24.54542 23.460958,-30.46874 l 1.919475,-1.99912 46.278385,-7.6e-4 c 43.296427,-3.8e-4 46.364237,-0.0435 47.610697,-0.66638 1.85425,-0.9266 2.3906,-2.32813 2.58799,-6.76262 0.18929,-4.25266 -0.35845,-7.696484 -1.43583,-9.027469 L 129.5347,95.196251 99.704372,94.982116 C 66.593654,94.74443 67.821305,94.837905 62.181216,92.125131 53.405424,87.904145 45.971294,79.117935 42.312126,68.642361 41.299428,65.743177 40.600453,62.795908 39.827293,58.164909 L 39.62068,56.927358 h 26.323899 26.3239 l 1.178297,0.895525 c 3.296753,2.505584 0.952157,2.320284 32.212274,2.545825 25.34982,0.182898 28.6116,0.274675 30.65319,0.86249 8.02507,2.310574 14.66317,8.166316 19.14225,16.886169 3.70503,7.21294 5.34732,13.706619 5.66757,22.409873 0.18022,4.89771 0.0945,6.27046 -0.60134,9.63174 -0.874,4.22181 -2.19808,7.87089 -4.56187,12.57224 -5.51167,10.96215 -15.78519,20.99545 -24.5333,23.95965 l -3.10979,1.05371 -70.167467,0.10114 -70.1674659,0.10114 z"
     id="path4083" />
  <path
     style="fill:#01070f;stroke:none;stroke-width:0.380785;fill-opacity:1"
     d="m 43.208931,39.597507 c 5.946921,-13.049659 17.21808,-25.382391 27.63735,-30.2403724 5.310226,-2.4758909 0.08519,-2.3243207 76.475749,-2.218443 l 69.42496,0.096224 -3.46475,4.7598134 c -6.29418,8.646841 -18.49839,22.5363 -24.60107,27.998172 l -2.75379,2.464628 h -72.0109 -72.010902 z"
     id="path4489" />
  <path
     style="fill:#01070f;stroke:none;stroke-width:0.380785;fill-opacity:1"
     d="m 212.2988,66.166969 c 0.52311,-1.41673 3.84267,-10.5438 7.37679,-20.282376 l 6.42569,-17.706503 11.44148,-0.100743 11.44148,-0.100743 -1.1232,3.077652 c -0.65055,1.782531 -0.92062,2.95483 -0.6418,2.785787 0.26477,-0.160526 2.21352,-1.545192 4.33054,-3.077036 l 3.84914,-2.785172 13.47249,0.100128 13.4725,0.100127 -5.8201,4.499976 -5.82011,4.499976 1.40941,1.973369 c 0.77518,1.085353 5.83785,8.081565 11.25038,15.547138 5.41253,7.465572 9.84096,13.677129 9.84096,13.803455 0,0.126329 -5.64761,0.229689 -12.55026,0.229689 H 268.10393 L 256.56954,54.670788 c -6.34391,-7.733497 -11.68034,-14.024919 -11.85872,-13.980936 -0.17838,0.04398 -2.60478,6.328551 -5.39202,13.965708 l -5.06769,13.885741 -11.45171,0.10077 -11.45171,0.100771 z"
     id="path5793" />
  <path
     id="path5869"
     style="fill:#01070f;stroke:none;stroke-width:0.380785;fill-opacity:1"
     d="M 286.67188 5.5117188 L 275.94336 13.189453 C 270.04337 17.413081 265.05443 21.014123 264.85547 21.191406 C 264.65651 21.368688 270.48114 21.5078 277.80078 21.5 L 291.10938 21.486328 L 301.41602 13.599609 L 311.7207 5.7109375 L 299.19531 5.6113281 L 286.67188 5.5117188 z M 320.6582 5.5117188 L 323.87695 13.384766 C 325.64664 17.715428 327.09375 21.316539 327.09375 21.386719 C 327.09375 21.456895 338.1988 21.513672 351.77148 21.513672 L 376.44922 21.513672 L 383.68359 15.136719 C 387.66183 11.628737 391.74453 8.0307099 392.75781 7.140625 L 394.59961 5.5214844 L 381.88672 5.5332031 L 369.17188 5.5449219 L 360.79297 12.949219 C 356.18547 17.020789 352.33127 20.353622 352.22656 20.357422 C 352.12184 20.361253 350.72648 17.068708 349.12695 13.039062 L 346.21875 5.7109375 L 333.43945 5.6113281 L 320.6582 5.5117188 z M 234.36719 5.5214844 L 231.60352 13.232422 C 230.08337 17.473415 228.8427 21.074185 228.8457 21.234375 C 228.84886 21.394568 233.93664 21.481251 240.15039 21.425781 L 251.44727 21.324219 L 254.23242 13.708984 C 255.76443 9.5203531 257.02044 5.9637144 257.02344 5.8066406 C 257.02665 5.6495668 251.93121 5.5214844 245.69922 5.5214844 L 234.36719 5.5214844 z M 404.10352 5.5214844 L 402.69141 9.4238281 C 401.91446 11.570503 400.61319 15.170484 399.80078 17.421875 L 398.32422 21.513672 L 417.16211 21.513672 C 427.52274 21.513672 435.99805 21.45182 435.99805 21.375 C 435.99805 21.190275 433.37521 7.4814437 433.12891 6.3789062 L 432.9375 5.5214844 L 418.52148 5.5214844 L 404.10352 5.5214844 z M 572.42383 5.5214844 L 570.94336 6.6953125 C 568.27975 8.8058868 558.61133 20.155796 558.61133 21.171875 C 558.61133 21.372971 571.05366 21.513672 588.63672 21.513672 L 618.66211 21.513672 L 620.23438 20.375 C 621.09907 19.748613 623.05139 17.765855 624.57422 15.96875 C 627.42583 12.603525 632.0821 6.3128333 632.0957 5.8066406 C 632.09991 5.6495668 618.67527 5.5214844 602.26367 5.5214844 L 572.42383 5.5214844 z M 470.62891 5.5703125 C 469.06933 5.5708052 467.0241 5.5875061 464.34766 5.6113281 L 453.00781 5.7109375 L 450.06836 13.613281 L 447.13086 21.513672 L 458.47266 21.513672 L 469.81445 21.513672 L 470.19336 20.466797 C 471.51202 16.815724 475.19829 6.7399961 475.41992 6.1816406 C 475.60883 5.7057308 475.30764 5.5688345 470.62891 5.5703125 z M 533.27148 5.6015625 C 529.21288 5.596753 524.75661 5.6018636 520.08789 5.6152344 L 486.13281 5.7109375 L 483.34766 13.328125 C 481.81558 17.51676 480.55964 21.071442 480.55664 21.228516 C 480.55343 21.38559 494.06203 21.513672 510.57617 21.513672 L 540.60156 21.513672 L 541.875 20.65625 C 544.23171 19.068065 554.04297 7.1232927 554.04297 5.8417969 C 554.04297 5.7083106 545.44729 5.6159909 533.27148 5.6015625 z M 444.82812 27.988281 L 443.65039 31.224609 C 443.00229 33.004779 441.93923 35.927493 441.28711 37.71875 C 440.635 39.510007 440.00502 40.878066 439.88672 40.759766 C 439.76842 40.641465 439.13823 37.762096 438.48828 34.361328 L 437.30664 28.177734 L 416.56641 28.085938 L 395.82617 27.994141 L 388.63086 47.886719 C 384.67371 58.82801 381.35657 67.994069 381.25977 68.255859 C 381.12141 68.629965 383.5236 68.732422 392.48438 68.732422 L 403.88672 68.732422 L 410.29102 51.021484 C 413.81396 41.280424 416.78129 33.394565 416.88477 33.498047 C 416.98825 33.601529 418.54632 41.528061 420.34766 51.113281 L 423.62305 68.541016 L 438.11914 68.640625 L 452.61523 68.740234 L 459.79688 48.839844 C 463.74684 37.894582 467.05288 28.724681 467.14258 28.462891 C 467.2706 28.089175 464.88983 27.988281 456.06641 27.988281 L 444.82812 27.988281 z M 589.93164 27.992188 L 578.60352 27.998047 L 571.41016 47.888672 C 567.45458 58.828702 564.13746 67.994069 564.03906 68.255859 C 563.89844 68.63003 566.30103 68.732422 575.26562 68.732422 L 586.66797 68.732422 L 593.96484 48.587891 C 597.97731 37.509232 601.25977 28.342737 601.25977 28.216797 C 601.25977 28.090858 596.16223 27.989387 589.93164 27.992188 z M 349.20508 28.035156 C 345.65948 28.035156 342.13166 28.048242 339.47852 28.076172 L 329.83008 28.177734 L 331.87695 33.128906 C 333.00208 35.851519 333.92855 38.374321 333.93555 38.736328 C 333.94523 39.22201 325.64089 62.482034 323.46484 68.064453 C 323.22098 68.690047 323.90271 68.732422 334.61523 68.732422 L 346.02734 68.732422 L 351.50586 53.714844 L 356.98633 38.699219 L 362.9707 33.4375 L 368.95508 28.177734 L 359.04102 28.076172 C 356.31463 28.048242 352.75068 28.035156 349.20508 28.035156 z M 481.41211 28.050781 C 479.34335 28.060695 478.03694 28.090007 477.99414 28.132812 C 477.76738 28.359581 463.41602 67.995057 463.41602 68.394531 C 463.41602 68.587147 476.2997 68.732422 493.49023 68.732422 L 523.56641 68.732422 L 527.0957 65.525391 C 529.03667 63.762114 531.62926 61.127145 532.85742 59.669922 C 534.92032 57.222293 537.26585 53.697677 537.28125 53.023438 C 537.28482 52.866363 527.01355 52.738281 514.45703 52.738281 L 491.62695 52.738281 L 492.57617 50.167969 C 493.09759 48.754305 493.70989 47.126718 493.9375 46.550781 L 494.35156 45.503906 L 506.29883 45.503906 L 518.24414 45.503906 L 526.60742 37.601562 L 534.9707 29.701172 L 521.42773 29.601562 L 507.88477 29.501953 L 502.25977 34.837891 C 499.16634 37.772605 496.55448 40.171875 496.45508 40.171875 C 496.35565 40.171875 497.2628 37.474331 498.4707 34.175781 L 500.66602 28.177734 L 489.4082 28.076172 C 486.3122 28.04841 483.48087 28.040867 481.41211 28.050781 z " />
</svg>
